<svg id="Layer_1" data-name="Layer 1" xmlns="http://www.w3.org/2000/svg" width="376.32" height="86.76" viewBox="0 0 376.32 86.76"><title>GoPay logo - Brandlogos.net</title><path d="M239.22,340.62A43.38,43.38,0,1,1,195.84,384a43.38,43.38,0,0,1,43.38-43.38Z" transform="translate(-195.84 -340.62)" style="fill:#02afd9;fill-rule:evenodd"/><path d="M214.21,393.74c.55,7.11,5,12.57,13.19,13a216.35,216.35,0,0,0,23.63,0,13.84,13.84,0,0,0,13.19-13q.42-5.47.37-10.93h0c-1.82-9.83-10.07-10.18-10.84-10.19H226a1.77,1.77,0,0,1-1.77-1.77h0a1.77,1.77,0,0,1,1.77-1.77h27.81c-.26-6.59-7.54-7.82-11-8L241,361h0c-4.52-.06-9,0-13.56.4-8.36.65-12.64,5.85-13.19,13a125.39,125.39,0,0,0,0,19.38ZM255.95,390v2.35a1.61,1.61,0,0,1-1.6,1.6h0a1.6,1.6,0,0,1-1.6-1.6V390a2.56,2.56,0,0,1-1.16-2.13,2.77,2.77,0,0,1,5.53,0,2.57,2.57,0,0,1-1.16,2.13Z" transform="translate(-195.84 -340.62)" style="fill:#fff;fill-rule:evenodd"/><path d="M501.43,380.07l0,7.83s-2.68,5.26-11.93,6.55-9.26-4.47-8.59-6,2.84-3.54,10.5-4.79c8.17-1.33,10-3.64,10-3.64Zm10.9-7.54v30.58h-10l-.11-5A21.39,21.39,0,0,1,488,404.23c-20.17.57-27.83-21.69-3.48-28.36,5.76-1.58,11.4-1.13,14.36-2.66,2-1,2.55-2.87,1.2-4.63-5-6.49-16.94-3.83-20.12,5.25l-10.05-2.47c2.51-10.13,10.66-14.66,20.37-15.6,10.43-1,22.09,4.65,22.09,16.77ZM321.8,367a13.32,13.32,0,1,0,13.26,13.32A13.29,13.29,0,0,0,321.8,367Zm26-9.81H335.07v5.09a23,23,0,0,0-15.19-5.72c-12.95,0-23.45,10.77-23.45,24.05s10.5,24.05,23.45,24.05a23,23,0,0,0,15.19-5.72v4.62a12.35,12.35,0,0,1-12.33,12.67c-5.89,0-10.68-1.14-14.67-5.83l-8.25,7.42c6.72,7.34,13.64,9.57,23.1,9.57,13.92,0,24.88-9.45,24.88-25.19v-45Zm224.37-.75-13.63,0L545,386l-15.54-29.56H515.83l22.45,42.1L526.42,423h13.68l32.07-66.51ZM439,367a13.32,13.32,0,1,1-13.26,13.32A13.29,13.29,0,0,1,439,367Zm-26-9.81h12.72v5.09a23,23,0,0,1,15.19-5.72c13,0,23.46,10.77,23.46,24.05s-10.5,24.05-23.46,24.05a23,23,0,0,1-15.19-5.72v24H413V357.19Zm-33.92,9.44a14,14,0,1,1-14.44,14,14.21,14.21,0,0,1,14.44-14Zm0-11c14.23,0,25.76,11.17,25.76,24.94s-11.53,24.94-25.76,24.94-25.76-11.17-25.76-24.94,11.53-24.94,25.76-24.94Z" transform="translate(-195.84 -340.62)" style="fill-rule:evenodd"/></svg>